<svg width="521" height="423" viewBox="0 0 521 423" fill="none" xmlns="http://www.w3.org/2000/svg">
<g clip-path="url(#clip0)">
<path opacity="0.75" d="M362.549 266.922L366.475 277L370.576 266.189L374.502 277L378.672 266.922H381.143L374.404 282.957L370.527 272.273L366.484 282.967L360.078 266.922H362.549ZM391.338 269.061H385.293V272.684H391.162V274.822H385.293V279.861H391.338V282H383.018V266.922H391.338V269.061ZM394.326 282V266.922H396.592C397.601 266.922 398.405 267 399.004 267.156C399.609 267.312 400.12 267.576 400.537 267.947C400.96 268.331 401.296 268.81 401.543 269.383C401.797 269.962 401.924 270.548 401.924 271.141C401.924 272.221 401.51 273.136 400.684 273.885C401.484 274.158 402.116 274.637 402.578 275.32C403.047 275.997 403.281 276.785 403.281 277.684C403.281 278.862 402.865 279.858 402.031 280.672C401.53 281.173 400.967 281.521 400.342 281.717C399.658 281.906 398.802 282 397.773 282H394.326ZM396.602 273.396H397.314C398.161 273.396 398.779 273.211 399.17 272.84C399.567 272.462 399.766 271.909 399.766 271.18C399.766 270.47 399.564 269.933 399.16 269.568C398.757 269.197 398.171 269.012 397.402 269.012H396.602V273.396ZM396.602 279.861H398.008C399.036 279.861 399.792 279.66 400.273 279.256C400.781 278.82 401.035 278.266 401.035 277.596C401.035 276.945 400.791 276.398 400.303 275.955C399.827 275.519 398.978 275.301 397.754 275.301H396.602V279.861ZM412.334 282V266.922H415.498C417.015 266.922 418.213 267.072 419.092 267.371C420.036 267.664 420.892 268.162 421.66 268.865C423.216 270.285 423.994 272.15 423.994 274.461C423.994 276.779 423.184 278.654 421.562 280.086C420.749 280.802 419.896 281.3 419.004 281.58C418.171 281.86 416.989 282 415.459 282H412.334ZM414.609 279.861H415.635C416.657 279.861 417.507 279.754 418.184 279.539C418.861 279.311 419.473 278.95 420.02 278.455C421.139 277.433 421.699 276.102 421.699 274.461C421.699 272.807 421.146 271.466 420.039 270.438C419.043 269.52 417.575 269.061 415.635 269.061H414.609V279.861ZM435.186 269.061H429.141V272.684H435.01V274.822H429.141V279.861H435.186V282H426.865V266.922H435.186V269.061ZM446.699 269.168L444.854 270.262C444.508 269.663 444.18 269.272 443.867 269.09C443.542 268.882 443.122 268.777 442.607 268.777C441.976 268.777 441.452 268.956 441.035 269.314C440.618 269.666 440.41 270.109 440.41 270.643C440.41 271.378 440.957 271.971 442.051 272.42L443.555 273.035C444.779 273.53 445.674 274.135 446.24 274.852C446.807 275.561 447.09 276.434 447.09 277.469C447.09 278.855 446.628 280.001 445.703 280.906C444.772 281.818 443.617 282.273 442.236 282.273C440.928 282.273 439.847 281.886 438.994 281.111C438.154 280.337 437.63 279.246 437.422 277.84L439.727 277.332C439.831 278.217 440.013 278.829 440.273 279.168C440.742 279.819 441.426 280.145 442.324 280.145C443.034 280.145 443.623 279.907 444.092 279.432C444.561 278.956 444.795 278.354 444.795 277.625C444.795 277.332 444.753 277.065 444.668 276.824C444.59 276.577 444.463 276.352 444.287 276.15C444.118 275.942 443.896 275.75 443.623 275.574C443.35 275.392 443.024 275.219 442.646 275.057L441.191 274.451C439.128 273.579 438.096 272.303 438.096 270.623C438.096 269.49 438.529 268.543 439.395 267.781C440.26 267.013 441.338 266.629 442.627 266.629C444.365 266.629 445.723 267.475 446.699 269.168ZM452.109 266.922V282H449.834V266.922H452.109ZM463.486 274.148H469.717V274.646C469.717 275.779 469.583 276.782 469.316 277.654C469.056 278.462 468.617 279.217 467.998 279.92C466.598 281.495 464.818 282.283 462.656 282.283C460.547 282.283 458.74 281.521 457.236 279.998C455.732 278.468 454.98 276.632 454.98 274.49C454.98 272.303 455.745 270.447 457.275 268.924C458.805 267.394 460.667 266.629 462.861 266.629C464.04 266.629 465.14 266.87 466.162 267.352C467.139 267.833 468.099 268.615 469.043 269.695L467.422 271.248C466.185 269.601 464.678 268.777 462.9 268.777C461.305 268.777 459.967 269.327 458.887 270.428C457.806 271.508 457.266 272.863 457.266 274.49C457.266 276.17 457.868 277.553 459.072 278.641C460.199 279.65 461.419 280.154 462.734 280.154C463.854 280.154 464.86 279.777 465.752 279.021C466.644 278.26 467.142 277.348 467.246 276.287H463.486V274.148ZM472.588 282V265.896L483.584 277.4V266.922H485.859V282.918L474.863 271.443V282H472.588Z" fill="white"/>
<path opacity="0.75" d="M361.279 256L364.453 239.789L369.629 251.508L374.99 239.789L377.842 256H375.508L374.053 246.898L369.59 256.693L365.254 246.889L363.633 256H361.279ZM389.902 252.338H383.447L381.768 256H379.316L386.777 239.975L393.975 256H391.484L389.902 252.338ZM388.975 250.199L386.738 245.072L384.395 250.199H388.975ZM400.977 249.574L405.645 256H402.861L398.555 249.828H398.145V256H395.869V240.922H398.535C400.527 240.922 401.966 241.296 402.852 242.045C403.828 242.878 404.316 243.979 404.316 245.346C404.316 246.413 404.01 247.331 403.398 248.1C402.786 248.868 401.979 249.359 400.977 249.574ZM398.145 247.846H398.867C401.022 247.846 402.1 247.022 402.1 245.375C402.1 243.832 401.051 243.061 398.955 243.061H398.145V247.846ZM410.195 246.938L416.064 240.922H419.102L412.285 247.748L419.141 256H416.094L410.664 249.291L410.195 249.76V256H407.92V240.922H410.195V246.938ZM429.502 243.061H423.457V246.684H429.326V248.822H423.457V253.861H429.502V256H421.182V240.922H429.502V243.061ZM436.65 243.061V256H434.375V243.061H430.908V240.922H440.107V243.061H436.65ZM444.414 240.922V256H442.139V240.922H444.414ZM448.037 256V239.896L459.033 251.4V240.922H461.309V256.918L450.312 245.443V256H448.037ZM472.842 248.148H479.072V248.646C479.072 249.779 478.939 250.782 478.672 251.654C478.411 252.462 477.972 253.217 477.354 253.92C475.954 255.495 474.173 256.283 472.012 256.283C469.902 256.283 468.096 255.521 466.592 253.998C465.088 252.468 464.336 250.632 464.336 248.49C464.336 246.303 465.101 244.447 466.631 242.924C468.161 241.394 470.023 240.629 472.217 240.629C473.395 240.629 474.495 240.87 475.518 241.352C476.494 241.833 477.454 242.615 478.398 243.695L476.777 245.248C475.54 243.601 474.033 242.777 472.256 242.777C470.661 242.777 469.323 243.327 468.242 244.428C467.161 245.508 466.621 246.863 466.621 248.49C466.621 250.17 467.223 251.553 468.428 252.641C469.554 253.65 470.775 254.154 472.09 254.154C473.21 254.154 474.215 253.777 475.107 253.021C475.999 252.26 476.497 251.348 476.602 250.287H472.842V248.148Z" fill="white"/>
<path opacity="0.75" d="M361.807 230V214.922H364.971C366.488 214.922 367.686 215.072 368.564 215.371C369.508 215.664 370.365 216.162 371.133 216.865C372.689 218.285 373.467 220.15 373.467 222.461C373.467 224.779 372.656 226.654 371.035 228.086C370.221 228.802 369.368 229.3 368.477 229.58C367.643 229.86 366.462 230 364.932 230H361.807ZM364.082 227.861H365.107C366.13 227.861 366.979 227.754 367.656 227.539C368.333 227.311 368.945 226.95 369.492 226.455C370.612 225.433 371.172 224.102 371.172 222.461C371.172 220.807 370.618 219.466 369.512 218.438C368.516 217.52 367.048 217.061 365.107 217.061H364.082V227.861ZM384.658 217.061H378.613V220.684H384.482V222.822H378.613V227.861H384.658V230H376.338V214.922H384.658V217.061ZM388.408 214.922L392.578 225.371L396.807 214.922H399.297L392.529 231.133L385.918 214.922H388.408ZM409.502 217.061H403.457V220.684H409.326V222.822H403.457V227.861H409.502V230H401.182V214.922H409.502V217.061ZM414.766 214.922V227.861H419.199V230H412.49V214.922H414.766ZM419.98 222.393C419.98 220.27 420.758 218.447 422.314 216.924C423.864 215.4 425.726 214.639 427.9 214.639C430.049 214.639 431.891 215.407 433.428 216.943C434.971 218.48 435.742 220.326 435.742 222.48C435.742 224.648 434.967 226.488 433.418 227.998C431.862 229.515 429.984 230.273 427.783 230.273C425.837 230.273 424.089 229.6 422.539 228.252C420.833 226.761 419.98 224.808 419.98 222.393ZM422.275 222.422C422.275 224.089 422.835 225.459 423.955 226.533C425.068 227.607 426.354 228.145 427.812 228.145C429.395 228.145 430.729 227.598 431.816 226.504C432.904 225.397 433.447 224.049 433.447 222.461C433.447 220.853 432.91 219.505 431.836 218.418C430.768 217.324 429.447 216.777 427.871 216.777C426.302 216.777 424.977 217.324 423.896 218.418C422.816 219.499 422.275 220.833 422.275 222.422ZM440.879 223.877V230H438.604V214.922H441.182C442.445 214.922 443.398 215.01 444.043 215.186C444.694 215.361 445.267 215.693 445.762 216.182C446.628 217.028 447.061 218.096 447.061 219.385C447.061 220.765 446.598 221.859 445.674 222.666C444.749 223.473 443.503 223.877 441.934 223.877H440.879ZM440.879 221.768H441.729C443.818 221.768 444.863 220.964 444.863 219.355C444.863 217.799 443.786 217.021 441.631 217.021H440.879V221.768ZM451.68 214.922V230H449.404V214.922H451.68ZM455.303 230V213.896L466.299 225.4V214.922H468.574V230.918L457.578 219.443V230H455.303ZM480.107 222.148H486.338V222.646C486.338 223.779 486.204 224.782 485.938 225.654C485.677 226.462 485.238 227.217 484.619 227.92C483.219 229.495 481.439 230.283 479.277 230.283C477.168 230.283 475.361 229.521 473.857 227.998C472.354 226.468 471.602 224.632 471.602 222.49C471.602 220.303 472.367 218.447 473.896 216.924C475.426 215.394 477.288 214.629 479.482 214.629C480.661 214.629 481.761 214.87 482.783 215.352C483.76 215.833 484.72 216.615 485.664 217.695L484.043 219.248C482.806 217.601 481.299 216.777 479.521 216.777C477.926 216.777 476.589 217.327 475.508 218.428C474.427 219.508 473.887 220.863 473.887 222.49C473.887 224.17 474.489 225.553 475.693 226.641C476.82 227.65 478.04 228.154 479.355 228.154C480.475 228.154 481.481 227.777 482.373 227.021C483.265 226.26 483.763 225.348 483.867 224.287H480.107V222.148Z" fill="white"/>
<path opacity="0.8" d="M0.166016 423V20.4121L275.068 308.01V46.0469H331.953V445.949L57.0508 159.084V423H0.166016Z" fill="#D21818"/>
<path opacity="0.8" d="M101.492 319.531V410H87.8398V319.531H101.492ZM190.086 324.395V340.566C182.195 333.965 174.031 330.664 165.594 330.664C156.297 330.664 148.465 334.004 142.098 340.684C135.691 347.324 132.488 355.449 132.488 365.059C132.488 374.551 135.691 382.559 142.098 389.082C148.504 395.605 156.355 398.867 165.652 398.867C170.457 398.867 174.539 398.086 177.898 396.523C179.773 395.742 181.707 394.688 183.699 393.359C185.73 392.031 187.859 390.43 190.086 388.555V405.02C182.273 409.434 174.07 411.641 165.477 411.641C152.547 411.641 141.512 407.129 132.371 398.105C123.27 389.004 118.719 378.027 118.719 365.176C118.719 353.652 122.527 343.379 130.145 334.355C139.52 323.301 151.648 317.773 166.531 317.773C174.656 317.773 182.508 319.98 190.086 324.395ZM202.273 364.355C202.273 351.621 206.941 340.684 216.277 331.543C225.574 322.402 236.746 317.832 249.793 317.832C262.684 317.832 273.738 322.441 282.957 331.66C292.215 340.879 296.844 351.953 296.844 364.883C296.844 377.891 292.195 388.926 282.898 397.988C273.562 407.09 262.293 411.641 249.09 411.641C237.41 411.641 226.922 407.598 217.625 399.512C207.391 390.566 202.273 378.848 202.273 364.355ZM216.043 364.531C216.043 374.531 219.402 382.754 226.121 389.199C232.801 395.645 240.516 398.867 249.266 398.867C258.758 398.867 266.766 395.586 273.289 389.023C279.812 382.383 283.074 374.297 283.074 364.766C283.074 355.117 279.852 347.031 273.406 340.508C267 333.945 259.07 330.664 249.617 330.664C240.203 330.664 232.254 333.945 225.77 340.508C219.285 346.992 216.043 355 216.043 364.531ZM327.664 319.531V397.168H354.266V410H314.012V319.531H327.664ZM425.398 388.027H386.668L376.59 410H361.883L406.648 313.848L449.832 410H434.891L425.398 388.027ZM419.832 375.195L406.414 344.434L392.352 375.195H419.832ZM512.352 333.008L501.277 339.57C499.207 335.977 497.234 333.633 495.359 332.539C493.406 331.289 490.887 330.664 487.801 330.664C484.012 330.664 480.867 331.738 478.367 333.887C475.867 335.996 474.617 338.652 474.617 341.855C474.617 346.27 477.898 349.824 484.461 352.52L493.484 356.211C500.828 359.18 506.199 362.812 509.598 367.109C512.996 371.367 514.695 376.602 514.695 382.812C514.695 391.133 511.922 398.008 506.375 403.438C500.789 408.906 493.855 411.641 485.574 411.641C477.723 411.641 471.238 409.316 466.121 404.668C461.082 400.02 457.938 393.477 456.688 385.039L470.516 381.992C471.141 387.305 472.234 390.977 473.797 393.008C476.609 396.914 480.711 398.867 486.102 398.867C490.359 398.867 493.895 397.441 496.707 394.59C499.52 391.738 500.926 388.125 500.926 383.75C500.926 381.992 500.672 380.391 500.164 378.945C499.695 377.461 498.934 376.113 497.879 374.902C496.863 373.652 495.535 372.5 493.895 371.445C492.254 370.352 490.301 369.316 488.035 368.34L479.305 364.707C466.922 359.473 460.73 351.816 460.73 341.738C460.73 334.941 463.328 329.258 468.523 324.688C473.719 320.078 480.184 317.773 487.918 317.773C498.348 317.773 506.492 322.852 512.352 333.008Z" fill="white"/>
</g>
<defs>
<clipPath id="clip0">
<rect width="521" height="423" fill="white"/>
</clipPath>
</defs>
</svg>
