<svg width="51" height="50" viewBox="0 0 51 50" fill="none" xmlns="http://www.w3.org/2000/svg">
<path d="M21.9695 29.684L30.1017 25.0003L21.9695 20.3167V29.684Z" fill="#F2F2F2"/>
<path d="M25.0834 0C11.2784 0 0.083374 11.195 0.083374 25C0.083374 38.805 11.2784 50 25.0834 50C38.8884 50 50.0834 38.805 50.0834 25C50.0834 11.195 38.8884 0 25.0834 0ZM40.7046 25.0256C40.7046 25.0256 40.7046 30.0957 40.0614 32.5405C39.7009 33.8787 38.6458 34.9339 37.3076 35.294C34.8627 35.9375 25.0834 35.9375 25.0834 35.9375C25.0834 35.9375 15.3296 35.9375 12.8592 35.2684C11.521 34.9083 10.4658 33.8528 10.1053 32.5146C9.46181 30.0957 9.46181 25 9.46181 25C9.46181 25 9.46181 19.9303 10.1053 17.4854C10.4655 16.1472 11.5465 15.0661 12.8592 14.706C15.304 14.0625 25.0834 14.0625 25.0834 14.0625C25.0834 14.0625 34.8627 14.0625 37.3076 14.7316C38.6458 15.0917 39.7009 16.1472 40.0614 17.4854C40.7305 19.9303 40.7046 25.0256 40.7046 25.0256Z" fill="#F2F2F2"/>
</svg>
