<svg width="51" height="50" viewBox="0 0 51 50" fill="none" xmlns="http://www.w3.org/2000/svg">
<path d="M50.1666 25C50.1666 11.1914 38.9752 0 25.1666 0C11.358 0 0.166626 11.1914 0.166626 25C0.166626 38.8086 11.358 50 25.1666 50C25.3131 50 25.4596 50 25.6061 49.9902V30.5371H20.235V24.2773H25.6061V19.668C25.6061 14.3262 28.8678 11.416 33.6334 11.416C35.9186 11.416 37.8815 11.582 38.4479 11.6602V17.2461H35.1666C32.5787 17.2461 32.0709 18.4766 32.0709 20.2832V24.2676H38.2721L37.4615 30.5273H32.0709V49.0332C42.5201 46.0352 50.1666 36.416 50.1666 25Z" fill="#F2F2F2"/>
</svg>
