<svg width="562" height="500" viewBox="0 0 562 500" fill="none" xmlns="http://www.w3.org/2000/svg">
<path opacity="0.6" d="M45.166 445V42.4121L320.068 330.01V68.0469H376.953V467.949L102.051 181.084V445H45.166Z" fill="#D21818"/>
<path opacity="0.75" d="M142.492 354.531V445H128.84V354.531H142.492ZM231.086 359.395V375.566C223.195 368.965 215.031 365.664 206.594 365.664C197.297 365.664 189.465 369.004 183.098 375.684C176.691 382.324 173.488 390.449 173.488 400.059C173.488 409.551 176.691 417.559 183.098 424.082C189.504 430.605 197.355 433.867 206.652 433.867C211.457 433.867 215.539 433.086 218.898 431.523C220.773 430.742 222.707 429.688 224.699 428.359C226.73 427.031 228.859 425.43 231.086 423.555V440.02C223.273 444.434 215.07 446.641 206.477 446.641C193.547 446.641 182.512 442.129 173.371 433.105C164.27 424.004 159.719 413.027 159.719 400.176C159.719 388.652 163.527 378.379 171.145 369.355C180.52 358.301 192.648 352.773 207.531 352.773C215.656 352.773 223.508 354.98 231.086 359.395ZM243.273 399.355C243.273 386.621 247.941 375.684 257.277 366.543C266.574 357.402 277.746 352.832 290.793 352.832C303.684 352.832 314.738 357.441 323.957 366.66C333.215 375.879 337.844 386.953 337.844 399.883C337.844 412.891 333.195 423.926 323.898 432.988C314.562 442.09 303.293 446.641 290.09 446.641C278.41 446.641 267.922 442.598 258.625 434.512C248.391 425.566 243.273 413.848 243.273 399.355ZM257.043 399.531C257.043 409.531 260.402 417.754 267.121 424.199C273.801 430.645 281.516 433.867 290.266 433.867C299.758 433.867 307.766 430.586 314.289 424.023C320.812 417.383 324.074 409.297 324.074 399.766C324.074 390.117 320.852 382.031 314.406 375.508C308 368.945 300.07 365.664 290.617 365.664C281.203 365.664 273.254 368.945 266.77 375.508C260.285 381.992 257.043 390 257.043 399.531ZM368.664 354.531V432.168H395.266V445H355.012V354.531H368.664ZM466.398 423.027H427.668L417.59 445H402.883L447.648 348.848L490.832 445H475.891L466.398 423.027ZM460.832 410.195L447.414 379.434L433.352 410.195H460.832ZM553.352 368.008L542.277 374.57C540.207 370.977 538.234 368.633 536.359 367.539C534.406 366.289 531.887 365.664 528.801 365.664C525.012 365.664 521.867 366.738 519.367 368.887C516.867 370.996 515.617 373.652 515.617 376.855C515.617 381.27 518.898 384.824 525.461 387.52L534.484 391.211C541.828 394.18 547.199 397.812 550.598 402.109C553.996 406.367 555.695 411.602 555.695 417.812C555.695 426.133 552.922 433.008 547.375 438.438C541.789 443.906 534.855 446.641 526.574 446.641C518.723 446.641 512.238 444.316 507.121 439.668C502.082 435.02 498.938 428.477 497.688 420.039L511.516 416.992C512.141 422.305 513.234 425.977 514.797 428.008C517.609 431.914 521.711 433.867 527.102 433.867C531.359 433.867 534.895 432.441 537.707 429.59C540.52 426.738 541.926 423.125 541.926 418.75C541.926 416.992 541.672 415.391 541.164 413.945C540.695 412.461 539.934 411.113 538.879 409.902C537.863 408.652 536.535 407.5 534.895 406.445C533.254 405.352 531.301 404.316 529.035 403.34L520.305 399.707C507.922 394.473 501.73 386.816 501.73 376.738C501.73 369.941 504.328 364.258 509.523 359.688C514.719 355.078 521.184 352.773 528.918 352.773C539.348 352.773 547.492 357.852 553.352 368.008Z" fill="white"/>
</svg>
