<svg width="56" height="29" viewBox="0 0 56 29" fill="none" xmlns="http://www.w3.org/2000/svg">
<path d="M55.3536 25.3536C55.5488 25.1583 55.5488 24.8417 55.3536 24.6465L52.1716 21.4645C51.9763 21.2692 51.6597 21.2692 51.4645 21.4645C51.2692 21.6597 51.2692 21.9763 51.4645 22.1716L54.2929 25L51.4645 27.8284C51.2692 28.0237 51.2692 28.3403 51.4645 28.5355C51.6597 28.7308 51.9763 28.7308 52.1716 28.5355L55.3536 25.3536ZM-4.37114e-08 25.5L55 25.5L55 24.5L4.37114e-08 24.5L-4.37114e-08 25.5Z" fill="#FF0000"/>
<path d="M1.15137 16L4.00781 1.41016L8.66602 11.957L13.4912 1.41016L16.0576 16H13.957L12.6475 7.80859L8.63086 16.624L4.72852 7.7998L3.26953 16H1.15137ZM18.2637 9.15332C18.2637 7.24316 18.9639 5.60254 20.3643 4.23145C21.7588 2.86035 23.4346 2.1748 25.3916 2.1748C27.3252 2.1748 28.9834 2.86621 30.3662 4.24902C31.7549 5.63184 32.4492 7.29297 32.4492 9.23242C32.4492 11.1836 31.752 12.8389 30.3574 14.1982C28.957 15.5635 27.2666 16.2461 25.2861 16.2461C23.5342 16.2461 21.9609 15.6396 20.5664 14.4268C19.0312 13.085 18.2637 11.3271 18.2637 9.15332ZM20.3291 9.17969C20.3291 10.6797 20.833 11.9131 21.8408 12.8799C22.8428 13.8467 24 14.3301 25.3125 14.3301C26.7363 14.3301 27.9375 13.8379 28.916 12.8535C29.8945 11.8574 30.3838 10.6445 30.3838 9.21484C30.3838 7.76758 29.9004 6.55469 28.9336 5.57617C27.9727 4.5918 26.7832 4.09961 25.3652 4.09961C23.9531 4.09961 22.7607 4.5918 21.7881 5.57617C20.8154 6.54883 20.3291 7.75 20.3291 9.17969ZM39.6211 10.2168L43.8223 16H41.3174L37.4414 10.4453H37.0723V16H35.0244V2.42969H37.4238C39.2168 2.42969 40.5117 2.7666 41.3086 3.44043C42.1875 4.19043 42.627 5.18066 42.627 6.41113C42.627 7.37207 42.3516 8.19824 41.8008 8.88965C41.25 9.58105 40.5234 10.0234 39.6211 10.2168ZM37.0723 8.66113H37.7227C39.6621 8.66113 40.6318 7.91992 40.6318 6.4375C40.6318 5.04883 39.6885 4.35449 37.8018 4.35449H37.0723V8.66113ZM53.3584 4.35449H47.918V7.61523H53.2002V9.54004H47.918V14.0752H53.3584V16H45.8701V2.42969H53.3584V4.35449Z" fill="white"/>
</svg>
