<svg width="1007" height="200" viewBox="0 0 1007 200" fill="none" xmlns="http://www.w3.org/2000/svg">
<path d="M40.8203 116.77V178H18.0664V27.2188H43.8477C56.4779 27.2188 66.0156 28.0977 72.4609 29.8555C78.9714 31.6133 84.7005 34.9336 89.6484 39.8164C98.3073 48.2799 102.637 58.957 102.637 71.8477C102.637 85.6497 98.0143 96.5872 88.7695 104.66C79.5247 112.733 67.0573 116.77 51.3672 116.77H40.8203ZM40.8203 95.6758H49.3164C70.2148 95.6758 80.6641 87.6354 80.6641 71.5547C80.6641 55.9948 69.8893 48.2148 48.3398 48.2148H40.8203V95.6758ZM217.148 113.742L263.828 178H235.996L192.93 116.281H188.828V178H166.074V27.2188H192.734C212.656 27.2188 227.044 30.9622 235.898 38.4492C245.664 46.7826 250.547 57.7852 250.547 71.457C250.547 82.1341 247.487 91.3138 241.367 98.9961C235.247 106.678 227.174 111.594 217.148 113.742ZM188.828 96.457H196.055C217.604 96.457 228.379 88.2214 228.379 71.75C228.379 56.3203 217.897 48.6055 196.934 48.6055H188.828V96.457ZM315.547 101.926C315.547 80.7018 323.327 62.4727 338.887 47.2383C354.382 32.0039 373.001 24.3867 394.746 24.3867C416.23 24.3867 434.655 32.069 450.02 47.4336C465.449 62.7982 473.164 81.2552 473.164 102.805C473.164 124.484 465.417 142.876 449.922 157.98C434.362 173.15 415.579 180.734 393.574 180.734C374.108 180.734 356.628 173.996 341.133 160.52C324.076 145.611 315.547 126.079 315.547 101.926ZM338.496 102.219C338.496 118.885 344.095 132.59 355.293 143.332C366.426 154.074 379.284 159.445 393.867 159.445C409.688 159.445 423.034 153.977 433.906 143.039C444.779 131.971 450.215 118.495 450.215 102.609C450.215 86.5286 444.844 73.0521 434.102 62.1797C423.424 51.2422 410.208 45.7734 394.453 45.7734C378.763 45.7734 365.514 51.2422 354.707 62.1797C343.9 72.987 338.496 86.3333 338.496 102.219ZM617.07 48.6055H564.531V84.8359H615.215V106.223H564.531V178H541.777V27.2188H617.07V48.6055ZM706.289 27.2188V178H683.535V27.2188H706.289ZM805.273 27.2188V156.613H849.609V178H782.52V27.2188H805.273ZM994.395 48.6055H933.945V84.8359H992.637V106.223H933.945V156.613H994.395V178H911.191V27.2188H994.395V48.6055Z" fill="#811212"/>
<circle cx="395" cy="103" r="18" fill="#811212"/>
</svg>
