<svg width="992" height="169" viewBox="0 0 992 169" fill="none" xmlns="http://www.w3.org/2000/svg">
<path d="M25.4883 8.21875L64.7461 109L105.762 0.894531L145.02 109L186.719 8.21875H211.426L144.043 168.57L105.273 61.7344L64.8438 168.668L0.78125 8.21875H25.4883ZM334.82 82.9258C334.82 61.7018 342.6 43.4727 358.16 28.2383C373.655 13.0039 392.275 5.38672 414.02 5.38672C435.504 5.38672 453.928 13.069 469.293 28.4336C484.723 43.7982 492.438 62.2552 492.438 83.8047C492.438 105.484 484.69 123.876 469.195 138.98C453.635 154.15 434.853 161.734 412.848 161.734C393.382 161.734 375.901 154.996 360.406 141.52C343.349 126.611 334.82 107.079 334.82 82.9258ZM357.77 83.2188C357.77 99.8854 363.368 113.59 374.566 124.332C385.699 135.074 398.557 140.445 413.141 140.445C428.961 140.445 442.307 134.977 453.18 124.039C464.052 112.971 469.488 99.4948 469.488 83.6094C469.488 67.5286 464.117 54.0521 453.375 43.1797C442.698 32.2422 429.482 26.7734 413.727 26.7734C398.036 26.7734 384.788 32.2422 373.98 43.1797C363.173 53.987 357.77 67.3333 357.77 83.2188ZM691.125 94.7422L737.805 159H709.973L666.906 97.2812H662.805V159H640.051V8.21875H666.711C686.633 8.21875 701.021 11.9622 709.875 19.4492C719.641 27.7826 724.523 38.7852 724.523 52.457C724.523 63.1341 721.464 72.3138 715.344 79.9961C709.224 87.6784 701.151 92.5938 691.125 94.7422ZM662.805 77.457H670.031C691.581 77.457 702.355 69.2214 702.355 52.75C702.355 37.3203 691.874 29.6055 670.91 29.6055H662.805V77.457ZM902.312 68.375L961.004 8.21875H991.375L923.211 76.4805L991.766 159H961.297L907 91.9102L902.312 96.5977V159H879.559V8.21875H902.312V68.375Z" fill="#811212"/>
</svg>
